<?xml version="1.0" encoding="utf-8"?>
<!-- Generator: Adobe Illustrator 24.0.2, SVG Export Plug-In . SVG Version: 6.00 Build 0)  -->
<svg version="1.1" id="Capa_1" xmlns="http://www.w3.org/2000/svg" xmlns:xlink="http://www.w3.org/1999/xlink" x="0px" y="0px"
	 viewBox="0 0 93.7 43.2" style="enable-background:new 0 0 93.7 43.2;" xml:space="preserve">
<style type="text/css">
	.st0{fill:#003A2B;}
</style>
<g transform="matrix(1,0,0,1,0,0)">
	<path class="st0" d="M69.1,19.7l0.1-1.6v-0.5h-0.6c-1,0-2,0.2-2.7,0.7C64.7,19,64,20.2,64,21.8c0,2.4,1.2,3.8,3.3,3.8
		c0.6,0,1-0.1,1.8-0.3v-3.4C69.1,21.8,69.1,19.7,69.1,19.7z M9.4,21.8c0,2.6,1.3,3.9,3.8,3.9c0.6,0,0.8,0,1.6-0.2v-7.6
		c-0.8-0.2-1-0.2-1.6-0.2C10.7,17.7,9.4,19.2,9.4,21.8z M33.1,24.9c0,1,0.6,1.4,1.8,1.4c0.7,0,1.4-0.1,2.2-0.2v-3.2
		C33.9,23.1,33.1,23.6,33.1,24.9z M83.5,17.6c-1.8,0-3,1.5-3,4.2s1,4.2,3,4.2c1.8,0,2.9-1.5,2.9-4.2C86.3,19.2,85.3,17.6,83.5,17.6z
		 M97.1,5.5c0-3-2.5-5.5-5.5-5.5h-89c-3,0-5.5,2.5-5.5,5.5v32.1c0,3.1,2.5,5.6,5.5,5.6h88.9c3,0,5.5-2.5,5.5-5.5L97.1,5.5L97.1,5.5z
		 M4.6,21.8c0-4.8,3.2-8,8.2-8c0.8,0,1.3,0.1,2.1,0.2V7.2h4.8v21.6c-2.4,0.5-4.2,0.6-6.2,0.6C7.6,29.4,4.6,26.9,4.6,21.8z
		 M26.7,25.2c0,3.8-0.2,5.6-1,7.2c-0.8,1.5-1.7,2.5-3.8,3.5l-4.4-2.1c2.1-1,3-1.8,3.6-3.2c0.6-1.4,0.7-3,0.7-7v-9.2h4.8V25.2z
		 M26.7,12h-4.8V7.2h4.8V12z M41.1,29c-1.6,0.3-4.6,0.6-6.6,0.6c-4,0-5.7-1.4-5.7-4.5c0-3.4,2.6-4.9,8.2-5.4v-1
		c0-0.9-0.4-1.2-1.6-1.2c-1.8,0-4,0.5-5.6,1.4v-3.7c2.4-1,4.1-1.4,6.2-1.4c2.4,0,3.8,0.6,4.6,1.9c0.4,0.7,0.4,1.6,0.4,3.6L41.1,29
		L41.1,29z M57.9,29.6h-4.8v-9.4c0-1.8-0.8-2.5-2.5-2.5c-0.6,0-1.5,0.1-2.3,0.3v11.6h-4.8V15c3.2-0.7,5.2-1,7.5-1
		c2.4,0,4.3,0.6,5.4,1.6c1,1,1.5,2.1,1.5,4.5V29.6z M73.4,20.3l0.6,4.5v1.4c0,4.1-0.5,6-1.5,7.5c-1.4,2.3-4.1,3.4-7.8,3.4
		c-1.8,0-3.6-0.2-5.2-1v-4.4c1.6,0.9,3.4,1.3,5.1,1.3c3.1,0,4.5-1.3,4.5-4.2v-0.1c-0.8,0.5-1.9,0.6-3.1,0.6c-4.2,0-6.8-2.7-6.8-7
		c0-5.4,3.9-8.4,10.8-8.4c2,0,3.9,0.2,6.2,0.6L74.3,18c-1.3-0.2,1,0-0.6-0.2 M83.4,29.7c-4.7,0-7.7-3-7.7-7.8c0-5,3-8.1,7.8-8.1
		c4.7,0,7.6,3,7.6,7.8C91.2,26.6,88.2,29.7,83.4,29.7z"/>
</g>
</svg>
