<?xml version="1.0" encoding="utf-8"?>
<!-- Generator: Adobe Illustrator 24.0.2, SVG Export Plug-In . SVG Version: 6.00 Build 0)  -->
<svg version="1.1" id="Capa_1" xmlns="http://www.w3.org/2000/svg" xmlns:xlink="http://www.w3.org/1999/xlink" x="0px" y="0px"
	 viewBox="0 0 32 34.3" style="enable-background:new 0 0 32 34.3;" xml:space="preserve">
<style type="text/css">
	.st0{fill:url(#SVGID_1_);}
	.st1{fill:url(#SVGID_2_);}
</style>
<linearGradient id="SVGID_1_" gradientUnits="userSpaceOnUse" x1="2.9998" y1="31.4287" x2="18.8227" y2="15.5527" gradientTransform="matrix(1 0 0 -1 0 35.5714)">
	<stop  offset="0" style="stop-color:#387EB8"/>
	<stop  offset="1" style="stop-color:#366994"/>
</linearGradient>
<path class="st0" d="M15.9,1.3c-8.1,0-7.6,3.5-7.6,3.5l0,3.6H16v1.1H5.2C5.2,9.6,0,9,0,17.2c0,8.2,4.5,7.9,4.5,7.9h2.7v-3.8
	c0,0-0.1-4.5,4.5-4.5h7.7c0,0,4.3,0.1,4.3-4.2v-7C23.7,5.5,24.4,1.3,15.9,1.3z M11.6,3.7c0.8,0,1.4,0.6,1.4,1.4
	c0,0.8-0.6,1.4-1.4,1.4l0,0c-0.8,0-1.4-0.6-1.4-1.4c0,0,0,0,0,0C10.2,4.4,10.8,3.7,11.6,3.7z"/>
<linearGradient id="SVGID_2_" gradientUnits="userSpaceOnUse" x1="12.7305" y1="21.3218" x2="29.7245" y2="5.0408" gradientTransform="matrix(1 0 0 -1 0 35.5714)">
	<stop  offset="0" style="stop-color:#FFE052"/>
	<stop  offset="1" style="stop-color:#FFC331"/>
</linearGradient>
<path class="st1" d="M16.1,33.1c8.1,0,7.6-3.5,7.6-3.5l0-3.7H16v-1.1h10.8c0,0,5.2,0.6,5.2-7.6s-4.5-7.9-4.5-7.9h-2.7v3.8
	c0,0,0.1,4.5-4.5,4.5h-7.7c0,0-4.3-0.1-4.3,4.2v7C8.3,28.9,7.6,33.1,16.1,33.1z M20.4,30.7c-0.8,0-1.4-0.6-1.4-1.4c0,0,0,0,0,0
	c0-0.8,0.6-1.4,1.4-1.4s1.4,0.6,1.4,1.4C21.8,30,21.2,30.7,20.4,30.7z"/>
</svg>
