<svg xmlns="http://www.w3.org/2000/svg" viewBox="0 0 22.578 22.578" height="64pt" width="64pt"><path d="M2.034 277.389c-.317 0-.6.171-.781.408a1.423 1.423 0 0 0-.283.872v9.04h20.638v-9.04c0-.33-.098-.636-.28-.872a1.002 1.002 0 0 0-.781-.408zm1.04 1.331H19.49c.192 0 .37.054.518.162.148.108.27.29.27.504v5.66a.635.635 0 0 1-.27.503.869.869 0 0 1-.518.162H3.074a.87.87 0 0 1-.519-.162.635.635 0 0 1-.27-.504v-5.659c0-.214.122-.396.27-.504a.87.87 0 0 1 .519-.162zm0 .666a.225.225 0 0 0-.123.035v5.592a.229.229 0 0 0 .123.032H19.49c.06 0 .105-.02.123-.032v-5.592a.225.225 0 0 0-.123-.035zm1.53.666a.333.333 0 0 1 .246.099.333.333 0 0 1 0 .469l-.432.43.432.432a.333.333 0 0 1 0 .47.333.333 0 0 1-.47 0l-.665-.666a.333.333 0 0 1 0-.47l.666-.665a.333.333 0 0 1 .223-.099zm2 0a.333.333 0 0 1 .158.034.333.333 0 0 1 .147.448l-.666 1.332a.333.333 0 0 1-.444.15.333.333 0 0 1-.15-.448l.666-1.332a.333.333 0 0 1 .29-.184zm1.33 0a.333.333 0 0 1 .245.099l.667.665a.333.333 0 0 1 0 .47l-.667.665a.333.333 0 0 1-.471 0 .333.333 0 0 1 0-.469l.43-.432-.43-.43a.333.333 0 0 1 0-.47.333.333 0 0 1 .226-.098zm8.35 0h1.997c.363 0 .666.303.666.666v2.995a.672.672 0 0 1-.666.666h-1.998a.672.672 0 0 1-.666-.666v-2.995c0-.363.303-.666.666-.666zm0 .666v2.995h1.997v-2.995zm-6.343.334h.332a.333.333 0 0 1 .335.332.333.333 0 0 1-.335.331h-.332a.333.333 0 0 1-.334-.331.333.333 0 0 1 .334-.332zm1.664 0H14.6a.333.333 0 0 1 .334.332.333.333 0 0 1-.334.331h-2.995a.333.333 0 0 1-.332-.331.333.333 0 0 1 .332-.332zm-1.008 1.33a.333.333 0 0 1 .246.098.333.333 0 0 1 0 .471l-.43.43.43.43a.333.333 0 0 1 0 .472.333.333 0 0 1-.471 0l-.667-.665a.333.333 0 0 1 0-.472l.667-.666a.333.333 0 0 1 .225-.098zm1.998 0a.333.333 0 0 1 .157.036.333.333 0 0 1 .15.445l-.666 1.332a.333.333 0 0 1-.447.15.333.333 0 0 1-.147-.448l.663-1.331a.333.333 0 0 1 .29-.184zm1.33 0a.333.333 0 0 1 .245.098l.666.666a.333.333 0 0 1 0 .472l-.666.665a.333.333 0 0 1-.47 0 .333.333 0 0 1 0-.472l.43-.43-.43-.43a.333.333 0 0 1 0-.471.333.333 0 0 1 .224-.098zm-9.974 1h2.995a.333.333 0 0 1 .332.331.333.333 0 0 1-.332.334H3.951a.333.333 0 0 1-.334-.334.333.333 0 0 1 .334-.331zm4.327 0h.332a.333.333 0 0 1 .334.331.333.333 0 0 1-.334.334h-.332a.333.333 0 0 1-.334-.334.333.333 0 0 1 .334-.331zm1.182 2.995h.332a.333.333 0 0 1 .334.331.333.333 0 0 1-.334.335H9.46a.333.333 0 0 1-.335-.335.333.333 0 0 1 .335-.331zm1.663 0h.334a.333.333 0 0 1 .332.331.333.333 0 0 1-.332.335h-.334a.333.333 0 0 1-.331-.335.333.333 0 0 1 .331-.331zm1.666 0h.332a.333.333 0 0 1 .331.331.333.333 0 0 1-.331.335h-.332a.333.333 0 0 1-.334-.335.333.333 0 0 1 .334-.331zM.97 288.375v.385c0 .331.101.637.283.873a1 1 0 0 0 .781.405h7.207l-.142 1h4.381l-.143-1h7.21a1 1 0 0 0 .781-.405 1.42 1.42 0 0 0 .28-.873v-.385zm5.994 3.326c-.53 0-1.023.281-1.295.735l-.312.521a.67.67 0 0 0-.09.41h-.633a.333.333 0 0 0-.335.332.333.333 0 0 0 .335.334h13.313a.333.333 0 0 0 .334-.334.333.333 0 0 0-.334-.331h-.633a.668.668 0 0 0-.09-.41l-.314-.522a1.51 1.51 0 0 0-1.293-.735zm-3.996 1.667a.333.333 0 0 0-.332.331.333.333 0 0 0 .332.334h.334a.333.333 0 0 0 .332-.334.333.333 0 0 0-.332-.331zm16.31 0a.333.333 0 0 0-.331.331.333.333 0 0 0 .331.334h.335a.333.333 0 0 0 .332-.334.333.333 0 0 0-.332-.331z" style="color:#000;font-style:normal;font-variant:normal;font-weight:400;font-stretch:normal;font-size:medium;line-height:normal;font-family:sans-serif;font-variant-ligatures:normal;font-variant-position:normal;font-variant-caps:normal;font-variant-numeric:normal;font-variant-alternates:normal;font-variant-east-asian:normal;font-feature-settings:normal;font-variation-settings:normal;text-indent:0;text-align:start;text-decoration:none;text-decoration-line:none;text-decoration-style:solid;text-decoration-color:#000;letter-spacing:normal;word-spacing:normal;text-transform:none;writing-mode:lr-tb;direction:ltr;text-orientation:mixed;dominant-baseline:auto;baseline-shift:baseline;text-anchor:start;white-space:normal;shape-padding:0;shape-margin:0;inline-size:0;clip-rule:nonzero;display:inline;overflow:visible;visibility:visible;isolation:auto;mix-blend-mode:normal;color-interpolation:sRGB;color-interpolation-filters:linearRGB;solid-color:#000;solid-opacity:1;vector-effect:none;fill:#000;fill-opacity:1;fill-rule:nonzero;stroke:none;stroke-width:.529167;stroke-linecap:round;stroke-linejoin:round;stroke-miterlimit:4;stroke-dasharray:none;stroke-dashoffset:0;stroke-opacity:1;color-rendering:auto;image-rendering:auto;shape-rendering:auto;text-rendering:auto;enable-background:accumulate;stop-color:#000" transform="translate(0 -274.422)"/></svg>